<?xml version="1.0" encoding="utf-8" standalone="no"?>
<!DOCTYPE svg PUBLIC "-//W3C//DTD SVG 1.1//EN"
  "http://www.w3.org/Graphics/SVG/1.1/DTD/svg11.dtd">
<svg xmlns:xlink="http://www.w3.org/1999/xlink" width="846.807418pt" height="557.003625pt" viewBox="0 0 846.807418 557.003625" xmlns="http://www.w3.org/2000/svg" version="1.1">
 <metadata>
  <rdf:RDF xmlns:dc="http://purl.org/dc/elements/1.1/" xmlns:cc="http://creativecommons.org/ns#" xmlns:rdf="http://www.w3.org/1999/02/22-rdf-syntax-ns#">
   <cc:Work>
    <dc:type rdf:resource="http://purl.org/dc/dcmitype/StillImage"/>
    <dc:date>2025-08-01T17:40:29.799485</dc:date>
    <dc:format>image/svg+xml</dc:format>
    <dc:creator>
     <cc:Agent>
      <dc:title>Matplotlib v3.10.0, https://matplotlib.org/</dc:title>
     </cc:Agent>
    </dc:creator>
   </cc:Work>
  </rdf:RDF>
 </metadata>
 <defs>
  <style type="text/css">*{stroke-linejoin: round; stroke-linecap: butt}</style>
 </defs>
 <g id="figure_1">
  <g id="patch_1">
   <path d="M 0 557.003625 
L 846.807418 557.003625 
L 846.807418 0 
L 0 0 
z
" style="fill: #ffffff"/>
  </g>
  <g id="axes_1">
   <g id="patch_2">
    <path d="M 58.325 509.76925 
L 839.607418 509.76925 
L 839.607418 61.03325 
L 58.325 61.03325 
z
" style="fill: #ffffff"/>
   </g>
   <g id="matplotlib.axis_1">
    <g id="xtick_1">
     <g id="line2d_1">
      <path d="M 93.837837 509.76925 
L 93.837837 61.03325 
" clip-path="url(#pdf2506d4bf)" style="fill: none; stroke: #b0b0b0; stroke-opacity: 0.3; stroke-width: 0.8; stroke-linecap: square"/>
     </g>
     <g id="line2d_2">
      <defs>
       <path id="m2b0ee6bcd1" d="M 0 0 
L 0 3.5 
" style="stroke: #000000; stroke-width: 0.8"/>
      </defs>
      <g>
       <use xlink:href="#m2b0ee6bcd1" x="93.837837" y="509.76925" style="stroke: #000000; stroke-width: 0.8"/>
      </g>
     </g>
     <g id="text_1">
      <!-- $\mathdefault{10^{-2}}$ -->
      <g transform="translate(77.387837 527.407062) scale(0.14 -0.14)">
       <defs>
        <path id="DejaVuSans-31" d="M 794 531 
L 1825 531 
L 1825 4091 
L 703 3866 
L 703 4441 
L 1819 4666 
L 2450 4666 
L 2450 531 
L 3481 531 
L 3481 0 
L 794 0 
L 794 531 
z
" transform="scale(0.015625)"/>
        <path id="DejaVuSans-30" d="M 2034 4250 
Q 1547 4250 1301 3770 
Q 1056 3291 1056 2328 
Q 1056 1369 1301 889 
Q 1547 409 2034 409 
Q 2525 409 2770 889 
Q 3016 1369 3016 2328 
Q 3016 3291 2770 3770 
Q 2525 4250 2034 4250 
z
M 2034 4750 
Q 2819 4750 3233 4129 
Q 3647 3509 3647 2328 
Q 3647 1150 3233 529 
Q 2819 -91 2034 -91 
Q 1250 -91 836 529 
Q 422 1150 422 2328 
Q 422 3509 836 4129 
Q 1250 4750 2034 4750 
z
" transform="scale(0.015625)"/>
        <path id="DejaVuSans-2212" d="M 678 2272 
L 4684 2272 
L 4684 1741 
L 678 1741 
L 678 2272 
z
" transform="scale(0.015625)"/>
        <path id="DejaVuSans-32" d="M 1228 531 
L 3431 531 
L 3431 0 
L 469 0 
L 469 531 
Q 828 903 1448 1529 
Q 2069 2156 2228 2338 
Q 2531 2678 2651 2914 
Q 2772 3150 2772 3378 
Q 2772 3750 2511 3984 
Q 2250 4219 1831 4219 
Q 1534 4219 1204 4116 
Q 875 4013 500 3803 
L 500 4441 
Q 881 4594 1212 4672 
Q 1544 4750 1819 4750 
Q 2544 4750 2975 4387 
Q 3406 4025 3406 3419 
Q 3406 3131 3298 2873 
Q 3191 2616 2906 2266 
Q 2828 2175 2409 1742 
Q 1991 1309 1228 531 
z
" transform="scale(0.015625)"/>
       </defs>
       <use xlink:href="#DejaVuSans-31" transform="translate(0 0.765625)"/>
       <use xlink:href="#DejaVuSans-30" transform="translate(63.623047 0.765625)"/>
       <use xlink:href="#DejaVuSans-2212" transform="translate(128.203125 39.046875) scale(0.7)"/>
       <use xlink:href="#DejaVuSans-32" transform="translate(186.855469 39.046875) scale(0.7)"/>
      </g>
     </g>
    </g>
    <g id="xtick_2">
     <g id="line2d_3">
      <path d="M 330.590085 509.76925 
L 330.590085 61.03325 
" clip-path="url(#pdf2506d4bf)" style="fill: none; stroke: #b0b0b0; stroke-opacity: 0.3; stroke-width: 0.8; stroke-linecap: square"/>
     </g>
     <g id="line2d_4">
      <g>
       <use xlink:href="#m2b0ee6bcd1" x="330.590085" y="509.76925" style="stroke: #000000; stroke-width: 0.8"/>
      </g>
     </g>
     <g id="text_2">
      <!-- $\mathdefault{10^{-1}}$ -->
      <g transform="translate(314.140085 527.407062) scale(0.14 -0.14)">
       <use xlink:href="#DejaVuSans-31" transform="translate(0 0.684375)"/>
       <use xlink:href="#DejaVuSans-30" transform="translate(63.623047 0.684375)"/>
       <use xlink:href="#DejaVuSans-2212" transform="translate(128.203125 38.965625) scale(0.7)"/>
       <use xlink:href="#DejaVuSans-31" transform="translate(186.855469 38.965625) scale(0.7)"/>
      </g>
     </g>
    </g>
    <g id="xtick_3">
     <g id="line2d_5">
      <path d="M 567.342333 509.76925 
L 567.342333 61.03325 
" clip-path="url(#pdf2506d4bf)" style="fill: none; stroke: #b0b0b0; stroke-opacity: 0.3; stroke-width: 0.8; stroke-linecap: square"/>
     </g>
     <g id="line2d_6">
      <g>
       <use xlink:href="#m2b0ee6bcd1" x="567.342333" y="509.76925" style="stroke: #000000; stroke-width: 0.8"/>
      </g>
     </g>
     <g id="text_3">
      <!-- $\mathdefault{10^{0}}$ -->
      <g transform="translate(555.022333 527.407062) scale(0.14 -0.14)">
       <use xlink:href="#DejaVuSans-31" transform="translate(0 0.765625)"/>
       <use xlink:href="#DejaVuSans-30" transform="translate(63.623047 0.765625)"/>
       <use xlink:href="#DejaVuSans-30" transform="translate(128.203125 39.046875) scale(0.7)"/>
      </g>
     </g>
    </g>
    <g id="xtick_4">
     <g id="line2d_7">
      <path d="M 804.094581 509.76925 
L 804.094581 61.03325 
" clip-path="url(#pdf2506d4bf)" style="fill: none; stroke: #b0b0b0; stroke-opacity: 0.3; stroke-width: 0.8; stroke-linecap: square"/>
     </g>
     <g id="line2d_8">
      <g>
       <use xlink:href="#m2b0ee6bcd1" x="804.094581" y="509.76925" style="stroke: #000000; stroke-width: 0.8"/>
      </g>
     </g>
     <g id="text_4">
      <!-- $\mathdefault{10^{1}}$ -->
      <g transform="translate(791.774581 527.407062) scale(0.14 -0.14)">
       <use xlink:href="#DejaVuSans-31" transform="translate(0 0.684375)"/>
       <use xlink:href="#DejaVuSans-30" transform="translate(63.623047 0.684375)"/>
       <use xlink:href="#DejaVuSans-31" transform="translate(128.203125 38.965625) scale(0.7)"/>
      </g>
     </g>
    </g>
    <g id="xtick_5">
     <g id="line2d_9">
      <defs>
       <path id="m77df27f712" d="M 0 0 
L 0 2 
" style="stroke: #000000; stroke-width: 0.6"/>
      </defs>
      <g>
       <use xlink:href="#m77df27f712" x="70.894174" y="509.76925" style="stroke: #000000; stroke-width: 0.6"/>
      </g>
     </g>
    </g>
    <g id="xtick_6">
     <g id="line2d_10">
      <g>
       <use xlink:href="#m77df27f712" x="83.004648" y="509.76925" style="stroke: #000000; stroke-width: 0.6"/>
      </g>
     </g>
    </g>
    <g id="xtick_7">
     <g id="line2d_11">
      <g>
       <use xlink:href="#m77df27f712" x="165.107365" y="509.76925" style="stroke: #000000; stroke-width: 0.6"/>
      </g>
     </g>
    </g>
    <g id="xtick_8">
     <g id="line2d_12">
      <g>
       <use xlink:href="#m77df27f712" x="206.797367" y="509.76925" style="stroke: #000000; stroke-width: 0.6"/>
      </g>
     </g>
    </g>
    <g id="xtick_9">
     <g id="line2d_13">
      <g>
       <use xlink:href="#m77df27f712" x="236.376894" y="509.76925" style="stroke: #000000; stroke-width: 0.6"/>
      </g>
     </g>
    </g>
    <g id="xtick_10">
     <g id="line2d_14">
      <g>
       <use xlink:href="#m77df27f712" x="259.320557" y="509.76925" style="stroke: #000000; stroke-width: 0.6"/>
      </g>
     </g>
    </g>
    <g id="xtick_11">
     <g id="line2d_15">
      <g>
       <use xlink:href="#m77df27f712" x="278.066895" y="509.76925" style="stroke: #000000; stroke-width: 0.6"/>
      </g>
     </g>
    </g>
    <g id="xtick_12">
     <g id="line2d_16">
      <g>
       <use xlink:href="#m77df27f712" x="293.916698" y="509.76925" style="stroke: #000000; stroke-width: 0.6"/>
      </g>
     </g>
    </g>
    <g id="xtick_13">
     <g id="line2d_17">
      <g>
       <use xlink:href="#m77df27f712" x="307.646422" y="509.76925" style="stroke: #000000; stroke-width: 0.6"/>
      </g>
     </g>
    </g>
    <g id="xtick_14">
     <g id="line2d_18">
      <g>
       <use xlink:href="#m77df27f712" x="319.756896" y="509.76925" style="stroke: #000000; stroke-width: 0.6"/>
      </g>
     </g>
    </g>
    <g id="xtick_15">
     <g id="line2d_19">
      <g>
       <use xlink:href="#m77df27f712" x="401.859613" y="509.76925" style="stroke: #000000; stroke-width: 0.6"/>
      </g>
     </g>
    </g>
    <g id="xtick_16">
     <g id="line2d_20">
      <g>
       <use xlink:href="#m77df27f712" x="443.549615" y="509.76925" style="stroke: #000000; stroke-width: 0.6"/>
      </g>
     </g>
    </g>
    <g id="xtick_17">
     <g id="line2d_21">
      <g>
       <use xlink:href="#m77df27f712" x="473.129141" y="509.76925" style="stroke: #000000; stroke-width: 0.6"/>
      </g>
     </g>
    </g>
    <g id="xtick_18">
     <g id="line2d_22">
      <g>
       <use xlink:href="#m77df27f712" x="496.072805" y="509.76925" style="stroke: #000000; stroke-width: 0.6"/>
      </g>
     </g>
    </g>
    <g id="xtick_19">
     <g id="line2d_23">
      <g>
       <use xlink:href="#m77df27f712" x="514.819143" y="509.76925" style="stroke: #000000; stroke-width: 0.6"/>
      </g>
     </g>
    </g>
    <g id="xtick_20">
     <g id="line2d_24">
      <g>
       <use xlink:href="#m77df27f712" x="530.668946" y="509.76925" style="stroke: #000000; stroke-width: 0.6"/>
      </g>
     </g>
    </g>
    <g id="xtick_21">
     <g id="line2d_25">
      <g>
       <use xlink:href="#m77df27f712" x="544.39867" y="509.76925" style="stroke: #000000; stroke-width: 0.6"/>
      </g>
     </g>
    </g>
    <g id="xtick_22">
     <g id="line2d_26">
      <g>
       <use xlink:href="#m77df27f712" x="556.509144" y="509.76925" style="stroke: #000000; stroke-width: 0.6"/>
      </g>
     </g>
    </g>
    <g id="xtick_23">
     <g id="line2d_27">
      <g>
       <use xlink:href="#m77df27f712" x="638.611861" y="509.76925" style="stroke: #000000; stroke-width: 0.6"/>
      </g>
     </g>
    </g>
    <g id="xtick_24">
     <g id="line2d_28">
      <g>
       <use xlink:href="#m77df27f712" x="680.301863" y="509.76925" style="stroke: #000000; stroke-width: 0.6"/>
      </g>
     </g>
    </g>
    <g id="xtick_25">
     <g id="line2d_29">
      <g>
       <use xlink:href="#m77df27f712" x="709.881389" y="509.76925" style="stroke: #000000; stroke-width: 0.6"/>
      </g>
     </g>
    </g>
    <g id="xtick_26">
     <g id="line2d_30">
      <g>
       <use xlink:href="#m77df27f712" x="732.825053" y="509.76925" style="stroke: #000000; stroke-width: 0.6"/>
      </g>
     </g>
    </g>
    <g id="xtick_27">
     <g id="line2d_31">
      <g>
       <use xlink:href="#m77df27f712" x="751.571391" y="509.76925" style="stroke: #000000; stroke-width: 0.6"/>
      </g>
     </g>
    </g>
    <g id="xtick_28">
     <g id="line2d_32">
      <g>
       <use xlink:href="#m77df27f712" x="767.421194" y="509.76925" style="stroke: #000000; stroke-width: 0.6"/>
      </g>
     </g>
    </g>
    <g id="xtick_29">
     <g id="line2d_33">
      <g>
       <use xlink:href="#m77df27f712" x="781.150917" y="509.76925" style="stroke: #000000; stroke-width: 0.6"/>
      </g>
     </g>
    </g>
    <g id="xtick_30">
     <g id="line2d_34">
      <g>
       <use xlink:href="#m77df27f712" x="793.261392" y="509.76925" style="stroke: #000000; stroke-width: 0.6"/>
      </g>
     </g>
    </g>
    <g id="text_5">
     <!-- Energy (eV) -->
     <g transform="translate(401.776209 546.476125) scale(0.16 -0.16)">
      <defs>
       <path id="DejaVuSans-45" d="M 628 4666 
L 3578 4666 
L 3578 4134 
L 1259 4134 
L 1259 2753 
L 3481 2753 
L 3481 2222 
L 1259 2222 
L 1259 531 
L 3634 531 
L 3634 0 
L 628 0 
L 628 4666 
z
" transform="scale(0.015625)"/>
       <path id="DejaVuSans-6e" d="M 3513 2113 
L 3513 0 
L 2938 0 
L 2938 2094 
Q 2938 2591 2744 2837 
Q 2550 3084 2163 3084 
Q 1697 3084 1428 2787 
Q 1159 2491 1159 1978 
L 1159 0 
L 581 0 
L 581 3500 
L 1159 3500 
L 1159 2956 
Q 1366 3272 1645 3428 
Q 1925 3584 2291 3584 
Q 2894 3584 3203 3211 
Q 3513 2838 3513 2113 
z
" transform="scale(0.015625)"/>
       <path id="DejaVuSans-65" d="M 3597 1894 
L 3597 1613 
L 953 1613 
Q 991 1019 1311 708 
Q 1631 397 2203 397 
Q 2534 397 2845 478 
Q 3156 559 3463 722 
L 3463 178 
Q 3153 47 2828 -22 
Q 2503 -91 2169 -91 
Q 1331 -91 842 396 
Q 353 884 353 1716 
Q 353 2575 817 3079 
Q 1281 3584 2069 3584 
Q 2775 3584 3186 3129 
Q 3597 2675 3597 1894 
z
M 3022 2063 
Q 3016 2534 2758 2815 
Q 2500 3097 2075 3097 
Q 1594 3097 1305 2825 
Q 1016 2553 972 2059 
L 3022 2063 
z
" transform="scale(0.015625)"/>
       <path id="DejaVuSans-72" d="M 2631 2963 
Q 2534 3019 2420 3045 
Q 2306 3072 2169 3072 
Q 1681 3072 1420 2755 
Q 1159 2438 1159 1844 
L 1159 0 
L 581 0 
L 581 3500 
L 1159 3500 
L 1159 2956 
Q 1341 3275 1631 3429 
Q 1922 3584 2338 3584 
Q 2397 3584 2469 3576 
Q 2541 3569 2628 3553 
L 2631 2963 
z
" transform="scale(0.015625)"/>
       <path id="DejaVuSans-67" d="M 2906 1791 
Q 2906 2416 2648 2759 
Q 2391 3103 1925 3103 
Q 1463 3103 1205 2759 
Q 947 2416 947 1791 
Q 947 1169 1205 825 
Q 1463 481 1925 481 
Q 2391 481 2648 825 
Q 2906 1169 2906 1791 
z
M 3481 434 
Q 3481 -459 3084 -895 
Q 2688 -1331 1869 -1331 
Q 1566 -1331 1297 -1286 
Q 1028 -1241 775 -1147 
L 775 -588 
Q 1028 -725 1275 -790 
Q 1522 -856 1778 -856 
Q 2344 -856 2625 -561 
Q 2906 -266 2906 331 
L 2906 616 
Q 2728 306 2450 153 
Q 2172 0 1784 0 
Q 1141 0 747 490 
Q 353 981 353 1791 
Q 353 2603 747 3093 
Q 1141 3584 1784 3584 
Q 2172 3584 2450 3431 
Q 2728 3278 2906 2969 
L 2906 3500 
L 3481 3500 
L 3481 434 
z
" transform="scale(0.015625)"/>
       <path id="DejaVuSans-79" d="M 2059 -325 
Q 1816 -950 1584 -1140 
Q 1353 -1331 966 -1331 
L 506 -1331 
L 506 -850 
L 844 -850 
Q 1081 -850 1212 -737 
Q 1344 -625 1503 -206 
L 1606 56 
L 191 3500 
L 800 3500 
L 1894 763 
L 2988 3500 
L 3597 3500 
L 2059 -325 
z
" transform="scale(0.015625)"/>
       <path id="DejaVuSans-20" transform="scale(0.015625)"/>
       <path id="DejaVuSans-28" d="M 1984 4856 
Q 1566 4138 1362 3434 
Q 1159 2731 1159 2009 
Q 1159 1288 1364 580 
Q 1569 -128 1984 -844 
L 1484 -844 
Q 1016 -109 783 600 
Q 550 1309 550 2009 
Q 550 2706 781 3412 
Q 1013 4119 1484 4856 
L 1984 4856 
z
" transform="scale(0.015625)"/>
       <path id="DejaVuSans-56" d="M 1831 0 
L 50 4666 
L 709 4666 
L 2188 738 
L 3669 4666 
L 4325 4666 
L 2547 0 
L 1831 0 
z
" transform="scale(0.015625)"/>
       <path id="DejaVuSans-29" d="M 513 4856 
L 1013 4856 
Q 1481 4119 1714 3412 
Q 1947 2706 1947 2009 
Q 1947 1309 1714 600 
Q 1481 -109 1013 -844 
L 513 -844 
Q 928 -128 1133 580 
Q 1338 1288 1338 2009 
Q 1338 2731 1133 3434 
Q 928 4138 513 4856 
z
" transform="scale(0.015625)"/>
      </defs>
      <use xlink:href="#DejaVuSans-45"/>
      <use xlink:href="#DejaVuSans-6e" transform="translate(63.183594 0)"/>
      <use xlink:href="#DejaVuSans-65" transform="translate(126.5625 0)"/>
      <use xlink:href="#DejaVuSans-72" transform="translate(188.085938 0)"/>
      <use xlink:href="#DejaVuSans-67" transform="translate(227.449219 0)"/>
      <use xlink:href="#DejaVuSans-79" transform="translate(290.925781 0)"/>
      <use xlink:href="#DejaVuSans-20" transform="translate(350.105469 0)"/>
      <use xlink:href="#DejaVuSans-28" transform="translate(381.892578 0)"/>
      <use xlink:href="#DejaVuSans-65" transform="translate(420.90625 0)"/>
      <use xlink:href="#DejaVuSans-56" transform="translate(482.429688 0)"/>
      <use xlink:href="#DejaVuSans-29" transform="translate(550.837891 0)"/>
     </g>
    </g>
   </g>
   <g id="matplotlib.axis_2">
    <g id="ytick_1">
     <g id="line2d_35">
      <path d="M 58.325 506.538008 
L 839.607418 506.538008 
" clip-path="url(#pdf2506d4bf)" style="fill: none; stroke: #b0b0b0; stroke-opacity: 0.3; stroke-width: 0.8; stroke-linecap: square"/>
     </g>
     <g id="line2d_36">
      <defs>
       <path id="mf17ff28460" d="M 0 0 
L -3.5 0 
" style="stroke: #000000; stroke-width: 0.8"/>
      </defs>
      <g>
       <use xlink:href="#mf17ff28460" x="58.325" y="506.538008" style="stroke: #000000; stroke-width: 0.8"/>
      </g>
     </g>
     <g id="text_6">
      <!-- $\mathdefault{10^{0}}$ -->
      <g transform="translate(26.685 511.856914) scale(0.14 -0.14)">
       <use xlink:href="#DejaVuSans-31" transform="translate(0 0.765625)"/>
       <use xlink:href="#DejaVuSans-30" transform="translate(63.623047 0.765625)"/>
       <use xlink:href="#DejaVuSans-30" transform="translate(128.203125 39.046875) scale(0.7)"/>
      </g>
     </g>
    </g>
    <g id="ytick_2">
     <g id="line2d_37">
      <path d="M 58.325 186.435432 
L 839.607418 186.435432 
" clip-path="url(#pdf2506d4bf)" style="fill: none; stroke: #b0b0b0; stroke-opacity: 0.3; stroke-width: 0.8; stroke-linecap: square"/>
     </g>
     <g id="line2d_38">
      <g>
       <use xlink:href="#mf17ff28460" x="58.325" y="186.435432" style="stroke: #000000; stroke-width: 0.8"/>
      </g>
     </g>
     <g id="text_7">
      <!-- $\mathdefault{10^{1}}$ -->
      <g transform="translate(26.685 191.754338) scale(0.14 -0.14)">
       <use xlink:href="#DejaVuSans-31" transform="translate(0 0.684375)"/>
       <use xlink:href="#DejaVuSans-30" transform="translate(63.623047 0.684375)"/>
       <use xlink:href="#DejaVuSans-31" transform="translate(128.203125 38.965625) scale(0.7)"/>
      </g>
     </g>
    </g>
    <g id="ytick_3">
     <g id="line2d_39">
      <defs>
       <path id="m1cf0b27c9d" d="M 0 0 
L -2 0 
" style="stroke: #000000; stroke-width: 0.6"/>
      </defs>
      <g>
       <use xlink:href="#m1cf0b27c9d" x="58.325" y="410.177531" style="stroke: #000000; stroke-width: 0.6"/>
      </g>
     </g>
    </g>
    <g id="ytick_4">
     <g id="line2d_40">
      <g>
       <use xlink:href="#m1cf0b27c9d" x="58.325" y="353.810265" style="stroke: #000000; stroke-width: 0.6"/>
      </g>
     </g>
    </g>
    <g id="ytick_5">
     <g id="line2d_41">
      <g>
       <use xlink:href="#m1cf0b27c9d" x="58.325" y="313.817054" style="stroke: #000000; stroke-width: 0.6"/>
      </g>
     </g>
    </g>
    <g id="ytick_6">
     <g id="line2d_42">
      <g>
       <use xlink:href="#m1cf0b27c9d" x="58.325" y="282.795909" style="stroke: #000000; stroke-width: 0.6"/>
      </g>
     </g>
    </g>
    <g id="ytick_7">
     <g id="line2d_43">
      <g>
       <use xlink:href="#m1cf0b27c9d" x="58.325" y="257.449788" style="stroke: #000000; stroke-width: 0.6"/>
      </g>
     </g>
    </g>
    <g id="ytick_8">
     <g id="line2d_44">
      <g>
       <use xlink:href="#m1cf0b27c9d" x="58.325" y="236.019949" style="stroke: #000000; stroke-width: 0.6"/>
      </g>
     </g>
    </g>
    <g id="ytick_9">
     <g id="line2d_45">
      <g>
       <use xlink:href="#m1cf0b27c9d" x="58.325" y="217.456577" style="stroke: #000000; stroke-width: 0.6"/>
      </g>
     </g>
    </g>
    <g id="ytick_10">
     <g id="line2d_46">
      <g>
       <use xlink:href="#m1cf0b27c9d" x="58.325" y="201.082523" style="stroke: #000000; stroke-width: 0.6"/>
      </g>
     </g>
    </g>
    <g id="ytick_11">
     <g id="line2d_47">
      <g>
       <use xlink:href="#m1cf0b27c9d" x="58.325" y="90.074955" style="stroke: #000000; stroke-width: 0.6"/>
      </g>
     </g>
    </g>
    <g id="text_8">
     <!-- Elastic Cross Section (barns) -->
     <g transform="translate(19.3575 399.3925) rotate(-90) scale(0.16 -0.16)">
      <defs>
       <path id="DejaVuSans-6c" d="M 603 4863 
L 1178 4863 
L 1178 0 
L 603 0 
L 603 4863 
z
" transform="scale(0.015625)"/>
       <path id="DejaVuSans-61" d="M 2194 1759 
Q 1497 1759 1228 1600 
Q 959 1441 959 1056 
Q 959 750 1161 570 
Q 1363 391 1709 391 
Q 2188 391 2477 730 
Q 2766 1069 2766 1631 
L 2766 1759 
L 2194 1759 
z
M 3341 1997 
L 3341 0 
L 2766 0 
L 2766 531 
Q 2569 213 2275 61 
Q 1981 -91 1556 -91 
Q 1019 -91 701 211 
Q 384 513 384 1019 
Q 384 1609 779 1909 
Q 1175 2209 1959 2209 
L 2766 2209 
L 2766 2266 
Q 2766 2663 2505 2880 
Q 2244 3097 1772 3097 
Q 1472 3097 1187 3025 
Q 903 2953 641 2809 
L 641 3341 
Q 956 3463 1253 3523 
Q 1550 3584 1831 3584 
Q 2591 3584 2966 3190 
Q 3341 2797 3341 1997 
z
" transform="scale(0.015625)"/>
       <path id="DejaVuSans-73" d="M 2834 3397 
L 2834 2853 
Q 2591 2978 2328 3040 
Q 2066 3103 1784 3103 
Q 1356 3103 1142 2972 
Q 928 2841 928 2578 
Q 928 2378 1081 2264 
Q 1234 2150 1697 2047 
L 1894 2003 
Q 2506 1872 2764 1633 
Q 3022 1394 3022 966 
Q 3022 478 2636 193 
Q 2250 -91 1575 -91 
Q 1294 -91 989 -36 
Q 684 19 347 128 
L 347 722 
Q 666 556 975 473 
Q 1284 391 1588 391 
Q 1994 391 2212 530 
Q 2431 669 2431 922 
Q 2431 1156 2273 1281 
Q 2116 1406 1581 1522 
L 1381 1569 
Q 847 1681 609 1914 
Q 372 2147 372 2553 
Q 372 3047 722 3315 
Q 1072 3584 1716 3584 
Q 2034 3584 2315 3537 
Q 2597 3491 2834 3397 
z
" transform="scale(0.015625)"/>
       <path id="DejaVuSans-74" d="M 1172 4494 
L 1172 3500 
L 2356 3500 
L 2356 3053 
L 1172 3053 
L 1172 1153 
Q 1172 725 1289 603 
Q 1406 481 1766 481 
L 2356 481 
L 2356 0 
L 1766 0 
Q 1100 0 847 248 
Q 594 497 594 1153 
L 594 3053 
L 172 3053 
L 172 3500 
L 594 3500 
L 594 4494 
L 1172 4494 
z
" transform="scale(0.015625)"/>
       <path id="DejaVuSans-69" d="M 603 3500 
L 1178 3500 
L 1178 0 
L 603 0 
L 603 3500 
z
M 603 4863 
L 1178 4863 
L 1178 4134 
L 603 4134 
L 603 4863 
z
" transform="scale(0.015625)"/>
       <path id="DejaVuSans-63" d="M 3122 3366 
L 3122 2828 
Q 2878 2963 2633 3030 
Q 2388 3097 2138 3097 
Q 1578 3097 1268 2742 
Q 959 2388 959 1747 
Q 959 1106 1268 751 
Q 1578 397 2138 397 
Q 2388 397 2633 464 
Q 2878 531 3122 666 
L 3122 134 
Q 2881 22 2623 -34 
Q 2366 -91 2075 -91 
Q 1284 -91 818 406 
Q 353 903 353 1747 
Q 353 2603 823 3093 
Q 1294 3584 2113 3584 
Q 2378 3584 2631 3529 
Q 2884 3475 3122 3366 
z
" transform="scale(0.015625)"/>
       <path id="DejaVuSans-43" d="M 4122 4306 
L 4122 3641 
Q 3803 3938 3442 4084 
Q 3081 4231 2675 4231 
Q 1875 4231 1450 3742 
Q 1025 3253 1025 2328 
Q 1025 1406 1450 917 
Q 1875 428 2675 428 
Q 3081 428 3442 575 
Q 3803 722 4122 1019 
L 4122 359 
Q 3791 134 3420 21 
Q 3050 -91 2638 -91 
Q 1578 -91 968 557 
Q 359 1206 359 2328 
Q 359 3453 968 4101 
Q 1578 4750 2638 4750 
Q 3056 4750 3426 4639 
Q 3797 4528 4122 4306 
z
" transform="scale(0.015625)"/>
       <path id="DejaVuSans-6f" d="M 1959 3097 
Q 1497 3097 1228 2736 
Q 959 2375 959 1747 
Q 959 1119 1226 758 
Q 1494 397 1959 397 
Q 2419 397 2687 759 
Q 2956 1122 2956 1747 
Q 2956 2369 2687 2733 
Q 2419 3097 1959 3097 
z
M 1959 3584 
Q 2709 3584 3137 3096 
Q 3566 2609 3566 1747 
Q 3566 888 3137 398 
Q 2709 -91 1959 -91 
Q 1206 -91 779 398 
Q 353 888 353 1747 
Q 353 2609 779 3096 
Q 1206 3584 1959 3584 
z
" transform="scale(0.015625)"/>
       <path id="DejaVuSans-53" d="M 3425 4513 
L 3425 3897 
Q 3066 4069 2747 4153 
Q 2428 4238 2131 4238 
Q 1616 4238 1336 4038 
Q 1056 3838 1056 3469 
Q 1056 3159 1242 3001 
Q 1428 2844 1947 2747 
L 2328 2669 
Q 3034 2534 3370 2195 
Q 3706 1856 3706 1288 
Q 3706 609 3251 259 
Q 2797 -91 1919 -91 
Q 1588 -91 1214 -16 
Q 841 59 441 206 
L 441 856 
Q 825 641 1194 531 
Q 1563 422 1919 422 
Q 2459 422 2753 634 
Q 3047 847 3047 1241 
Q 3047 1584 2836 1778 
Q 2625 1972 2144 2069 
L 1759 2144 
Q 1053 2284 737 2584 
Q 422 2884 422 3419 
Q 422 4038 858 4394 
Q 1294 4750 2059 4750 
Q 2388 4750 2728 4690 
Q 3069 4631 3425 4513 
z
" transform="scale(0.015625)"/>
       <path id="DejaVuSans-62" d="M 3116 1747 
Q 3116 2381 2855 2742 
Q 2594 3103 2138 3103 
Q 1681 3103 1420 2742 
Q 1159 2381 1159 1747 
Q 1159 1113 1420 752 
Q 1681 391 2138 391 
Q 2594 391 2855 752 
Q 3116 1113 3116 1747 
z
M 1159 2969 
Q 1341 3281 1617 3432 
Q 1894 3584 2278 3584 
Q 2916 3584 3314 3078 
Q 3713 2572 3713 1747 
Q 3713 922 3314 415 
Q 2916 -91 2278 -91 
Q 1894 -91 1617 61 
Q 1341 213 1159 525 
L 1159 0 
L 581 0 
L 581 4863 
L 1159 4863 
L 1159 2969 
z
" transform="scale(0.015625)"/>
      </defs>
      <use xlink:href="#DejaVuSans-45"/>
      <use xlink:href="#DejaVuSans-6c" transform="translate(63.183594 0)"/>
      <use xlink:href="#DejaVuSans-61" transform="translate(90.966797 0)"/>
      <use xlink:href="#DejaVuSans-73" transform="translate(152.246094 0)"/>
      <use xlink:href="#DejaVuSans-74" transform="translate(204.345703 0)"/>
      <use xlink:href="#DejaVuSans-69" transform="translate(243.554688 0)"/>
      <use xlink:href="#DejaVuSans-63" transform="translate(271.337891 0)"/>
      <use xlink:href="#DejaVuSans-20" transform="translate(326.318359 0)"/>
      <use xlink:href="#DejaVuSans-43" transform="translate(358.105469 0)"/>
      <use xlink:href="#DejaVuSans-72" transform="translate(427.929688 0)"/>
      <use xlink:href="#DejaVuSans-6f" transform="translate(466.792969 0)"/>
      <use xlink:href="#DejaVuSans-73" transform="translate(527.974609 0)"/>
      <use xlink:href="#DejaVuSans-73" transform="translate(580.074219 0)"/>
      <use xlink:href="#DejaVuSans-20" transform="translate(632.173828 0)"/>
      <use xlink:href="#DejaVuSans-53" transform="translate(663.960938 0)"/>
      <use xlink:href="#DejaVuSans-65" transform="translate(727.4375 0)"/>
      <use xlink:href="#DejaVuSans-63" transform="translate(788.960938 0)"/>
      <use xlink:href="#DejaVuSans-74" transform="translate(843.941406 0)"/>
      <use xlink:href="#DejaVuSans-69" transform="translate(883.150391 0)"/>
      <use xlink:href="#DejaVuSans-6f" transform="translate(910.933594 0)"/>
      <use xlink:href="#DejaVuSans-6e" transform="translate(972.115234 0)"/>
      <use xlink:href="#DejaVuSans-20" transform="translate(1035.494141 0)"/>
      <use xlink:href="#DejaVuSans-28" transform="translate(1067.28125 0)"/>
      <use xlink:href="#DejaVuSans-62" transform="translate(1106.294922 0)"/>
      <use xlink:href="#DejaVuSans-61" transform="translate(1169.771484 0)"/>
      <use xlink:href="#DejaVuSans-72" transform="translate(1231.050781 0)"/>
      <use xlink:href="#DejaVuSans-6e" transform="translate(1270.414062 0)"/>
      <use xlink:href="#DejaVuSans-73" transform="translate(1333.792969 0)"/>
      <use xlink:href="#DejaVuSans-29" transform="translate(1385.892578 0)"/>
     </g>
    </g>
   </g>
   <g id="line2d_48">
    <path d="M 93.837837 292.119967 
L 129.421842 292.746527 
L 159.312407 293.491491 
L 183.50953 294.302168 
L 204.859933 295.228233 
L 223.363616 296.242523 
L 240.443939 297.406251 
L 254.677541 298.589343 
L 267.487783 299.863001 
L 278.874664 301.200768 
L 288.838186 302.565266 
L 298.801707 304.14956 
L 307.341868 305.71818 
L 315.88203 307.520915 
L 322.998831 309.23609 
L 330.115632 311.181067 
L 335.809073 312.930569 
L 341.502513 314.880129 
L 347.195954 317.06088 
L 352.889395 319.509969 
L 357.159476 321.549228 
L 361.429556 323.785869 
L 365.699637 326.24442 
L 369.969717 328.952288 
L 374.239798 331.939458 
L 378.509879 335.237486 
L 382.779959 338.877088 
L 387.05004 342.883054 
L 391.320121 347.263977 
L 395.590201 351.992095 
L 406.977083 364.982725 
L 408.400443 366.341397 
L 409.823803 367.527685 
L 411.247164 368.483722 
L 412.670524 369.139132 
L 414.093884 369.409344 
L 415.517244 369.194221 
L 416.940604 368.377345 
L 418.363965 366.82647 
L 419.787325 364.395748 
L 421.210685 360.93042 
L 422.634045 356.274544 
L 424.057405 350.282071 
L 425.480766 342.830963 
L 426.904126 333.839305 
L 428.327486 323.281541 
L 429.750846 311.202459 
L 431.174206 297.72656 
L 434.020927 267.491833 
L 439.714368 203.856206 
L 441.137728 189.703912 
L 442.561088 177.005882 
L 443.984448 166.013862 
L 445.407809 156.874978 
L 446.831169 149.627426 
L 448.254529 144.209866 
L 449.677889 140.481848 
L 451.101249 138.25007 
L 452.52461 137.294853 
L 453.94797 137.392546 
L 455.37133 138.331735 
L 456.79469 139.923069 
L 458.21805 142.003756 
L 459.641411 144.438231 
L 462.488131 149.950903 
L 471.028292 167.367887 
L 473.875013 172.7136 
L 476.721733 177.700178 
L 479.568454 182.319621 
L 482.415174 186.582967 
L 485.261894 190.510927 
L 488.108615 194.128433 
L 490.955335 197.461538 
L 493.802056 200.53571 
L 496.648776 203.37495 
L 500.918857 207.241194 
L 505.188937 210.694547 
L 509.459018 213.791759 
L 513.729098 216.580987 
L 517.999179 219.102981 
L 522.26926 221.392243 
L 526.53934 223.478044 
L 532.232781 225.985144 
L 537.926222 228.223723 
L 543.619663 230.23406 
L 550.736464 232.475985 
L 557.853265 234.465397 
L 564.970066 236.244566 
L 573.510227 238.149939 
L 583.473749 240.115801 
L 594.86063 242.096315 
L 607.670872 244.068703 
L 623.327834 246.222855 
L 644.678238 248.905169 
L 677.415522 253.012597 
L 691.649124 255.038578 
L 703.036006 256.896637 
L 711.576167 258.502994 
L 718.692968 260.039607 
L 725.809769 261.824429 
L 731.50321 263.495706 
L 735.773291 264.93928 
L 740.043372 266.596992 
L 744.313452 268.537307 
L 747.160173 270.037123 
L 750.006893 271.752465 
L 752.853613 273.747006 
L 755.700334 276.114763 
L 758.547054 279.001522 
L 759.970414 280.708989 
L 761.393775 282.647765 
L 762.817135 284.87793 
L 764.240495 287.483473 
L 765.663855 290.585686 
L 767.087215 294.366714 
L 768.510576 299.113546 
L 769.933936 305.306544 
L 771.357296 313.815484 
L 772.780656 326.392054 
L 774.204017 347.142312 
L 775.627377 388.140224 
L 777.050737 489.372159 
L 778.474097 136.791412 
L 779.897457 98.547521 
L 781.320818 173.511091 
L 782.744178 205.273339 
L 784.167538 222.850862 
L 785.590898 234.298116 
L 787.014258 242.607519 
L 788.437619 249.143651 
L 789.860979 254.625063 
L 792.707699 263.974638 
L 796.97778 277.244674 
L 798.40114 282.147129 
L 799.8245 287.613312 
L 801.24786 293.92875 
L 802.671221 301.51496 
L 804.094581 311.047804 
L 804.094581 311.047804 
" clip-path="url(#pdf2506d4bf)" style="fill: none; stroke: #2e86ab; stroke-width: 3; stroke-linecap: square"/>
   </g>
   <g id="line2d_49">
    <path d="M 93.837837 334.581741 
L 301.648428 333.513656 
L 341.502513 333.650107 
L 372.816438 333.972197 
L 399.860282 334.473381 
L 424.057405 335.152386 
L 445.407809 335.967925 
L 466.758212 337.007868 
L 488.108615 338.28043 
L 509.459018 339.7826 
L 530.809421 341.505546 
L 552.159824 343.442102 
L 573.510227 345.592814 
L 594.86063 347.968238 
L 614.787673 350.404747 
L 634.714716 353.072651 
L 653.218399 355.773964 
L 671.722082 358.704558 
L 690.225764 361.874468 
L 707.306087 365.0193 
L 724.386409 368.380149 
L 741.466732 371.968042 
L 757.123694 375.478814 
L 771.357296 378.895419 
L 782.744178 381.836081 
L 792.707699 384.628459 
L 801.24786 387.268599 
L 804.094581 388.220546 
L 804.094581 388.220546 
" clip-path="url(#pdf2506d4bf)" style="fill: none; stroke: #a23b72; stroke-width: 3; stroke-linecap: square"/>
   </g>
   <g id="line2d_50">
    <path d="M 93.837837 215.375454 
L 142.232084 215.773692 
L 177.816089 216.273256 
L 206.283294 216.881053 
L 230.480417 217.614505 
L 250.40746 218.428617 
L 267.487783 219.330673 
L 283.144745 220.376156 
L 295.954987 221.4325 
L 307.341868 222.564302 
L 318.72875 223.924113 
L 328.692271 225.347583 
L 337.232433 226.782567 
L 345.772594 228.460506 
L 352.889395 230.082793 
L 360.006196 231.94914 
L 365.699637 233.648206 
L 371.393078 235.558679 
L 377.086519 237.708226 
L 382.779959 240.12233 
L 388.4734 242.815747 
L 394.166841 245.772942 
L 406.977083 252.629247 
L 409.823803 253.799899 
L 411.247164 254.242824 
L 412.670524 254.552963 
L 414.093884 254.694261 
L 415.517244 254.623279 
L 416.940604 254.288133 
L 418.363965 253.627508 
L 419.787325 252.56994 
L 421.210685 251.033612 
L 422.634045 248.927027 
L 424.057405 246.151029 
L 425.480766 242.602715 
L 426.904126 238.181779 
L 428.327486 232.799672 
L 429.750846 226.391593 
L 431.174206 218.930665 
L 432.597567 210.442801 
L 434.020927 201.019858 
L 436.867647 180.107998 
L 441.137728 148.019617 
L 442.561088 138.515887 
L 443.984448 130.117353 
L 445.407809 123.019258 
L 446.831169 117.319446 
L 448.254529 113.020815 
L 449.677889 110.046643 
L 451.101249 108.263516 
L 452.52461 107.505899 
L 453.94797 107.597722 
L 455.37133 108.368477 
L 456.79469 109.663401 
L 458.21805 111.348558 
L 461.064771 115.463739 
L 466.758212 124.740978 
L 471.028292 131.467501 
L 473.875013 135.616444 
L 476.721733 139.459043 
L 479.568454 142.995552 
L 482.415174 146.240355 
L 485.261894 149.214446 
L 488.108615 151.941182 
L 490.955335 154.44396 
L 495.225416 157.826384 
L 499.495496 160.822117 
L 503.765577 163.48912 
L 508.035658 165.876236 
L 512.305738 168.024318 
L 516.575819 169.967471 
L 522.26926 172.288146 
L 527.962701 174.349834 
L 533.656141 176.196468 
L 540.772942 178.255401 
L 547.889743 180.087494 
L 556.429905 182.045793 
L 566.393426 184.069678 
L 577.780308 186.12085 
L 590.59055 188.183889 
L 606.247512 190.46478 
L 627.597915 193.330347 
L 673.145442 199.376106 
L 688.802404 201.704538 
L 701.612646 203.83285 
L 711.576167 205.698811 
L 720.116329 207.50962 
L 727.23313 209.227146 
L 732.92657 210.788428 
L 738.620011 212.577777 
L 742.890092 214.1227 
L 747.160173 215.906449 
L 750.006893 217.272798 
L 752.853613 218.827948 
L 755.700334 220.633336 
L 758.547054 222.78339 
L 759.970414 224.032257 
L 761.393775 225.432163 
L 762.817135 227.020973 
L 764.240495 228.851133 
L 765.663855 230.997539 
L 767.087215 233.571128 
L 768.510576 236.743659 
L 769.933936 240.796065 
L 771.357296 246.220953 
L 772.780656 253.963922 
L 774.204017 266.070219 
L 775.627377 287.636043 
L 777.050737 328.068413 
L 778.474097 114.610758 
L 779.897457 81.430341 
L 781.320818 145.404256 
L 782.744178 170.866808 
L 784.167538 184.488598 
L 785.590898 193.187513 
L 787.014258 199.427061 
L 788.437619 204.297698 
L 789.860979 208.360369 
L 792.707699 215.242997 
L 796.97778 224.860221 
L 798.40114 228.347178 
L 799.8245 232.184345 
L 801.24786 236.547299 
L 802.671221 241.686175 
L 804.094581 247.986017 
L 804.094581 247.986017 
" clip-path="url(#pdf2506d4bf)" style="fill: none; stroke-dasharray: 14.8,6.4; stroke-dashoffset: 0; stroke: #000000; stroke-opacity: 0.8; stroke-width: 4"/>
   </g>
   <g id="patch_3">
    <path d="M 58.325 509.76925 
L 58.325 61.03325 
" style="fill: none; stroke: #000000; stroke-width: 0.8; stroke-linejoin: miter; stroke-linecap: square"/>
   </g>
   <g id="patch_4">
    <path d="M 839.607418 509.76925 
L 839.607418 61.03325 
" style="fill: none; stroke: #000000; stroke-width: 0.8; stroke-linejoin: miter; stroke-linecap: square"/>
   </g>
   <g id="patch_5">
    <path d="M 58.325 509.76925 
L 839.607418 509.76925 
" style="fill: none; stroke: #000000; stroke-width: 0.8; stroke-linejoin: miter; stroke-linecap: square"/>
   </g>
   <g id="patch_6">
    <path d="M 58.325 61.03325 
L 839.607418 61.03325 
" style="fill: none; stroke: #000000; stroke-width: 0.8; stroke-linejoin: miter; stroke-linecap: square"/>
   </g>
   <g id="text_9">
    <!-- Elastic Cross Section by Spin Group (J-π) -->
    <g transform="translate(268.247615 20.877187) scale(0.18 -0.18)">
     <defs>
      <path id="DejaVuSans-70" d="M 1159 525 
L 1159 -1331 
L 581 -1331 
L 581 3500 
L 1159 3500 
L 1159 2969 
Q 1341 3281 1617 3432 
Q 1894 3584 2278 3584 
Q 2916 3584 3314 3078 
Q 3713 2572 3713 1747 
Q 3713 922 3314 415 
Q 2916 -91 2278 -91 
Q 1894 -91 1617 61 
Q 1341 213 1159 525 
z
M 3116 1747 
Q 3116 2381 2855 2742 
Q 2594 3103 2138 3103 
Q 1681 3103 1420 2742 
Q 1159 2381 1159 1747 
Q 1159 1113 1420 752 
Q 1681 391 2138 391 
Q 2594 391 2855 752 
Q 3116 1113 3116 1747 
z
" transform="scale(0.015625)"/>
      <path id="DejaVuSans-47" d="M 3809 666 
L 3809 1919 
L 2778 1919 
L 2778 2438 
L 4434 2438 
L 4434 434 
Q 4069 175 3628 42 
Q 3188 -91 2688 -91 
Q 1594 -91 976 548 
Q 359 1188 359 2328 
Q 359 3472 976 4111 
Q 1594 4750 2688 4750 
Q 3144 4750 3555 4637 
Q 3966 4525 4313 4306 
L 4313 3634 
Q 3963 3931 3569 4081 
Q 3175 4231 2741 4231 
Q 1884 4231 1454 3753 
Q 1025 3275 1025 2328 
Q 1025 1384 1454 906 
Q 1884 428 2741 428 
Q 3075 428 3337 486 
Q 3600 544 3809 666 
z
" transform="scale(0.015625)"/>
      <path id="DejaVuSans-75" d="M 544 1381 
L 544 3500 
L 1119 3500 
L 1119 1403 
Q 1119 906 1312 657 
Q 1506 409 1894 409 
Q 2359 409 2629 706 
Q 2900 1003 2900 1516 
L 2900 3500 
L 3475 3500 
L 3475 0 
L 2900 0 
L 2900 538 
Q 2691 219 2414 64 
Q 2138 -91 1772 -91 
Q 1169 -91 856 284 
Q 544 659 544 1381 
z
M 1991 3584 
L 1991 3584 
z
" transform="scale(0.015625)"/>
      <path id="DejaVuSans-4a" d="M 628 4666 
L 1259 4666 
L 1259 325 
Q 1259 -519 939 -900 
Q 619 -1281 -91 -1281 
L -331 -1281 
L -331 -750 
L -134 -750 
Q 284 -750 456 -515 
Q 628 -281 628 325 
L 628 4666 
z
" transform="scale(0.015625)"/>
      <path id="DejaVuSans-2d" d="M 313 2009 
L 1997 2009 
L 1997 1497 
L 313 1497 
L 313 2009 
z
" transform="scale(0.015625)"/>
      <path id="DejaVuSans-3c0" d="M 231 3500 
L 3584 3500 
L 3584 2925 
L 3144 2925 
L 3144 775 
Q 3144 550 3220 451 
Q 3297 353 3469 353 
Q 3516 353 3584 361 
Q 3653 369 3675 372 
L 3675 -44 
Q 3566 -84 3450 -103 
Q 3334 -122 3219 -122 
Q 2844 -122 2700 83 
Q 2556 288 2556 838 
L 2556 2925 
L 1266 2925 
L 1266 0 
L 678 0 
L 678 2925 
L 231 2925 
L 231 3500 
z
" transform="scale(0.015625)"/>
     </defs>
     <use xlink:href="#DejaVuSans-45"/>
     <use xlink:href="#DejaVuSans-6c" transform="translate(63.183594 0)"/>
     <use xlink:href="#DejaVuSans-61" transform="translate(90.966797 0)"/>
     <use xlink:href="#DejaVuSans-73" transform="translate(152.246094 0)"/>
     <use xlink:href="#DejaVuSans-74" transform="translate(204.345703 0)"/>
     <use xlink:href="#DejaVuSans-69" transform="translate(243.554688 0)"/>
     <use xlink:href="#DejaVuSans-63" transform="translate(271.337891 0)"/>
     <use xlink:href="#DejaVuSans-20" transform="translate(326.318359 0)"/>
     <use xlink:href="#DejaVuSans-43" transform="translate(358.105469 0)"/>
     <use xlink:href="#DejaVuSans-72" transform="translate(427.929688 0)"/>
     <use xlink:href="#DejaVuSans-6f" transform="translate(466.792969 0)"/>
     <use xlink:href="#DejaVuSans-73" transform="translate(527.974609 0)"/>
     <use xlink:href="#DejaVuSans-73" transform="translate(580.074219 0)"/>
     <use xlink:href="#DejaVuSans-20" transform="translate(632.173828 0)"/>
     <use xlink:href="#DejaVuSans-53" transform="translate(663.960938 0)"/>
     <use xlink:href="#DejaVuSans-65" transform="translate(727.4375 0)"/>
     <use xlink:href="#DejaVuSans-63" transform="translate(788.960938 0)"/>
     <use xlink:href="#DejaVuSans-74" transform="translate(843.941406 0)"/>
     <use xlink:href="#DejaVuSans-69" transform="translate(883.150391 0)"/>
     <use xlink:href="#DejaVuSans-6f" transform="translate(910.933594 0)"/>
     <use xlink:href="#DejaVuSans-6e" transform="translate(972.115234 0)"/>
     <use xlink:href="#DejaVuSans-20" transform="translate(1035.494141 0)"/>
     <use xlink:href="#DejaVuSans-62" transform="translate(1067.28125 0)"/>
     <use xlink:href="#DejaVuSans-79" transform="translate(1130.757812 0)"/>
     <use xlink:href="#DejaVuSans-20" transform="translate(1189.9375 0)"/>
     <use xlink:href="#DejaVuSans-53" transform="translate(1221.724609 0)"/>
     <use xlink:href="#DejaVuSans-70" transform="translate(1285.201172 0)"/>
     <use xlink:href="#DejaVuSans-69" transform="translate(1348.677734 0)"/>
     <use xlink:href="#DejaVuSans-6e" transform="translate(1376.460938 0)"/>
     <use xlink:href="#DejaVuSans-20" transform="translate(1439.839844 0)"/>
     <use xlink:href="#DejaVuSans-47" transform="translate(1471.626953 0)"/>
     <use xlink:href="#DejaVuSans-72" transform="translate(1549.117188 0)"/>
     <use xlink:href="#DejaVuSans-6f" transform="translate(1587.980469 0)"/>
     <use xlink:href="#DejaVuSans-75" transform="translate(1649.162109 0)"/>
     <use xlink:href="#DejaVuSans-70" transform="translate(1712.541016 0)"/>
     <use xlink:href="#DejaVuSans-20" transform="translate(1776.017578 0)"/>
     <use xlink:href="#DejaVuSans-28" transform="translate(1807.804688 0)"/>
     <use xlink:href="#DejaVuSans-4a" transform="translate(1846.818359 0)"/>
     <use xlink:href="#DejaVuSans-2d" transform="translate(1872.685547 0)"/>
     <use xlink:href="#DejaVuSans-3c0" transform="translate(1908.769531 0)"/>
     <use xlink:href="#DejaVuSans-29" transform="translate(1968.974609 0)"/>
    </g>
    <!-- 094 Pu 239 -->
    <g transform="translate(397.915115 41.03325) scale(0.18 -0.18)">
     <defs>
      <path id="DejaVuSans-39" d="M 703 97 
L 703 672 
Q 941 559 1184 500 
Q 1428 441 1663 441 
Q 2288 441 2617 861 
Q 2947 1281 2994 2138 
Q 2813 1869 2534 1725 
Q 2256 1581 1919 1581 
Q 1219 1581 811 2004 
Q 403 2428 403 3163 
Q 403 3881 828 4315 
Q 1253 4750 1959 4750 
Q 2769 4750 3195 4129 
Q 3622 3509 3622 2328 
Q 3622 1225 3098 567 
Q 2575 -91 1691 -91 
Q 1453 -91 1209 -44 
Q 966 3 703 97 
z
M 1959 2075 
Q 2384 2075 2632 2365 
Q 2881 2656 2881 3163 
Q 2881 3666 2632 3958 
Q 2384 4250 1959 4250 
Q 1534 4250 1286 3958 
Q 1038 3666 1038 3163 
Q 1038 2656 1286 2365 
Q 1534 2075 1959 2075 
z
" transform="scale(0.015625)"/>
      <path id="DejaVuSans-34" d="M 2419 4116 
L 825 1625 
L 2419 1625 
L 2419 4116 
z
M 2253 4666 
L 3047 4666 
L 3047 1625 
L 3713 1625 
L 3713 1100 
L 3047 1100 
L 3047 0 
L 2419 0 
L 2419 1100 
L 313 1100 
L 313 1709 
L 2253 4666 
z
" transform="scale(0.015625)"/>
      <path id="DejaVuSans-50" d="M 1259 4147 
L 1259 2394 
L 2053 2394 
Q 2494 2394 2734 2622 
Q 2975 2850 2975 3272 
Q 2975 3691 2734 3919 
Q 2494 4147 2053 4147 
L 1259 4147 
z
M 628 4666 
L 2053 4666 
Q 2838 4666 3239 4311 
Q 3641 3956 3641 3272 
Q 3641 2581 3239 2228 
Q 2838 1875 2053 1875 
L 1259 1875 
L 1259 0 
L 628 0 
L 628 4666 
z
" transform="scale(0.015625)"/>
      <path id="DejaVuSans-33" d="M 2597 2516 
Q 3050 2419 3304 2112 
Q 3559 1806 3559 1356 
Q 3559 666 3084 287 
Q 2609 -91 1734 -91 
Q 1441 -91 1130 -33 
Q 819 25 488 141 
L 488 750 
Q 750 597 1062 519 
Q 1375 441 1716 441 
Q 2309 441 2620 675 
Q 2931 909 2931 1356 
Q 2931 1769 2642 2001 
Q 2353 2234 1838 2234 
L 1294 2234 
L 1294 2753 
L 1863 2753 
Q 2328 2753 2575 2939 
Q 2822 3125 2822 3475 
Q 2822 3834 2567 4026 
Q 2313 4219 1838 4219 
Q 1578 4219 1281 4162 
Q 984 4106 628 3988 
L 628 4550 
Q 988 4650 1302 4700 
Q 1616 4750 1894 4750 
Q 2613 4750 3031 4423 
Q 3450 4097 3450 3541 
Q 3450 3153 3228 2886 
Q 3006 2619 2597 2516 
z
" transform="scale(0.015625)"/>
     </defs>
     <use xlink:href="#DejaVuSans-30"/>
     <use xlink:href="#DejaVuSans-39" transform="translate(63.623047 0)"/>
     <use xlink:href="#DejaVuSans-34" transform="translate(127.246094 0)"/>
     <use xlink:href="#DejaVuSans-20" transform="translate(190.869141 0)"/>
     <use xlink:href="#DejaVuSans-50" transform="translate(222.65625 0)"/>
     <use xlink:href="#DejaVuSans-75" transform="translate(281.208984 0)"/>
     <use xlink:href="#DejaVuSans-20" transform="translate(344.587891 0)"/>
     <use xlink:href="#DejaVuSans-32" transform="translate(376.375 0)"/>
     <use xlink:href="#DejaVuSans-33" transform="translate(439.998047 0)"/>
     <use xlink:href="#DejaVuSans-39" transform="translate(503.621094 0)"/>
    </g>
   </g>
   <g id="legend_1">
    <g id="patch_7">
     <path d="M 68.125 133.881375 
L 195.7525 133.881375 
Q 198.5525 133.881375 198.5525 131.081375 
L 198.5525 70.83325 
Q 198.5525 68.03325 195.7525 68.03325 
L 68.125 68.03325 
Q 65.325 68.03325 65.325 70.83325 
L 65.325 131.081375 
Q 65.325 133.881375 68.125 133.881375 
z
" style="fill: #ffffff; opacity: 0.8; stroke: #cccccc; stroke-linejoin: miter"/>
    </g>
    <g id="line2d_51">
     <path d="M 70.925 79.371062 
L 84.925 79.371062 
L 98.925 79.371062 
" style="fill: none; stroke: #2e86ab; stroke-width: 3; stroke-linecap: square"/>
    </g>
    <g id="text_10">
     <!-- J = 1.0+ -->
     <g transform="translate(110.125 84.271062) scale(0.14 -0.14)">
      <defs>
       <path id="DejaVuSans-3d" d="M 678 2906 
L 4684 2906 
L 4684 2381 
L 678 2381 
L 678 2906 
z
M 678 1631 
L 4684 1631 
L 4684 1100 
L 678 1100 
L 678 1631 
z
" transform="scale(0.015625)"/>
       <path id="DejaVuSans-2e" d="M 684 794 
L 1344 794 
L 1344 0 
L 684 0 
L 684 794 
z
" transform="scale(0.015625)"/>
       <path id="DejaVuSans-2b" d="M 2944 4013 
L 2944 2272 
L 4684 2272 
L 4684 1741 
L 2944 1741 
L 2944 0 
L 2419 0 
L 2419 1741 
L 678 1741 
L 678 2272 
L 2419 2272 
L 2419 4013 
L 2944 4013 
z
" transform="scale(0.015625)"/>
      </defs>
      <use xlink:href="#DejaVuSans-4a"/>
      <use xlink:href="#DejaVuSans-20" transform="translate(29.492188 0)"/>
      <use xlink:href="#DejaVuSans-3d" transform="translate(61.279297 0)"/>
      <use xlink:href="#DejaVuSans-20" transform="translate(145.068359 0)"/>
      <use xlink:href="#DejaVuSans-31" transform="translate(176.855469 0)"/>
      <use xlink:href="#DejaVuSans-2e" transform="translate(240.478516 0)"/>
      <use xlink:href="#DejaVuSans-30" transform="translate(272.265625 0)"/>
      <use xlink:href="#DejaVuSans-2b" transform="translate(335.888672 0)"/>
     </g>
    </g>
    <g id="line2d_52">
     <path d="M 70.925 99.920437 
L 84.925 99.920437 
L 98.925 99.920437 
" style="fill: none; stroke: #a23b72; stroke-width: 3; stroke-linecap: square"/>
    </g>
    <g id="text_11">
     <!-- J = 0.0+ -->
     <g transform="translate(110.125 104.820437) scale(0.14 -0.14)">
      <use xlink:href="#DejaVuSans-4a"/>
      <use xlink:href="#DejaVuSans-20" transform="translate(29.492188 0)"/>
      <use xlink:href="#DejaVuSans-3d" transform="translate(61.279297 0)"/>
      <use xlink:href="#DejaVuSans-20" transform="translate(145.068359 0)"/>
      <use xlink:href="#DejaVuSans-30" transform="translate(176.855469 0)"/>
      <use xlink:href="#DejaVuSans-2e" transform="translate(240.478516 0)"/>
      <use xlink:href="#DejaVuSans-30" transform="translate(272.265625 0)"/>
      <use xlink:href="#DejaVuSans-2b" transform="translate(335.888672 0)"/>
     </g>
    </g>
    <g id="line2d_53">
     <path d="M 70.925 120.469812 
L 84.925 120.469812 
L 98.925 120.469812 
" style="fill: none; stroke-dasharray: 14.8,6.4; stroke-dashoffset: 0; stroke: #000000; stroke-opacity: 0.8; stroke-width: 4"/>
    </g>
    <g id="text_12">
     <!-- Total Elastic -->
     <g transform="translate(110.125 125.369812) scale(0.14 -0.14)">
      <defs>
       <path id="DejaVuSans-54" d="M -19 4666 
L 3928 4666 
L 3928 4134 
L 2272 4134 
L 2272 0 
L 1638 0 
L 1638 4134 
L -19 4134 
L -19 4666 
z
" transform="scale(0.015625)"/>
      </defs>
      <use xlink:href="#DejaVuSans-54"/>
      <use xlink:href="#DejaVuSans-6f" transform="translate(44.083984 0)"/>
      <use xlink:href="#DejaVuSans-74" transform="translate(105.265625 0)"/>
      <use xlink:href="#DejaVuSans-61" transform="translate(144.474609 0)"/>
      <use xlink:href="#DejaVuSans-6c" transform="translate(205.753906 0)"/>
      <use xlink:href="#DejaVuSans-20" transform="translate(233.537109 0)"/>
      <use xlink:href="#DejaVuSans-45" transform="translate(265.324219 0)"/>
      <use xlink:href="#DejaVuSans-6c" transform="translate(328.507812 0)"/>
      <use xlink:href="#DejaVuSans-61" transform="translate(356.291016 0)"/>
      <use xlink:href="#DejaVuSans-73" transform="translate(417.570312 0)"/>
      <use xlink:href="#DejaVuSans-74" transform="translate(469.669922 0)"/>
      <use xlink:href="#DejaVuSans-69" transform="translate(508.878906 0)"/>
      <use xlink:href="#DejaVuSans-63" transform="translate(536.662109 0)"/>
     </g>
    </g>
   </g>
  </g>
 </g>
 <defs>
  <clipPath id="pdf2506d4bf">
   <rect x="58.325" y="61.03325" width="781.282418" height="448.736"/>
  </clipPath>
 </defs>
</svg>
